<svg width="62" height="62" viewBox="0 0 62 62" fill="none" xmlns="http://www.w3.org/2000/svg">
<circle cx="31" cy="31" r="31" fill="#212121"/>
<path d="M44.3333 37.56V41.56C44.3348 41.9313 44.2588 42.2989 44.11 42.6391C43.9612 42.9794 43.743 43.2848 43.4694 43.5358C43.1958 43.7869 42.8727 43.978 42.521 44.0969C42.1692 44.2159 41.7965 44.2601 41.4266 44.2267C37.3238 43.7809 33.3826 42.3789 29.92 40.1333C26.6984 38.0862 23.9671 35.3549 21.92 32.1333C19.6666 28.6549 18.2643 24.6947 17.8266 20.5733C17.7933 20.2046 17.8371 19.833 17.9553 19.4822C18.0735 19.1313 18.2634 18.8089 18.513 18.5355C18.7626 18.2621 19.0664 18.0436 19.405 17.894C19.7437 17.7444 20.1098 17.667 20.48 17.6667H24.48C25.1271 17.6603 25.7544 17.8894 26.245 18.3114C26.7356 18.7333 27.0561 19.3193 27.1466 19.96C27.3155 21.2401 27.6286 22.497 28.08 23.7067C28.2594 24.1839 28.2982 24.7025 28.1919 25.2012C28.0855 25.6998 27.8385 26.1575 27.48 26.52L25.7866 28.2133C27.6847 31.5514 30.4486 34.3153 33.7866 36.2133L35.48 34.52C35.8425 34.1615 36.3002 33.9145 36.7988 33.8081C37.2974 33.7018 37.8161 33.7406 38.2933 33.92C39.503 34.3714 40.7599 34.6845 42.04 34.8533C42.6877 34.9447 43.2792 35.2709 43.702 35.77C44.1249 36.269 44.3495 36.9061 44.3333 37.56Z" stroke="#00DF5E" stroke-width="2" stroke-linecap="round" stroke-linejoin="round"/>
</svg>
